<svg id="svg" version="1.1" xmlns="http://www.w3.org/2000/svg" xmlns:xlink="http://www.w3.org/1999/xlink" viewBox="0, 0, 400,400"><g id="svgg"><path id="path0" d="M115.651 20.700 C 111.698 30.441,113.511 57.928,119.445 78.200 C 120.333 81.234,120.299 81.216,124.600 80.961 C 133.297 80.444,141.121 77.867,148.448 73.106 C 151.651 71.025,158.000 64.804,158.000 63.746 C 158.000 63.026,154.122 56.352,152.337 54.002 C 138.622 35.934,121.733 19.600,116.767 19.600 C 116.398 19.600,115.896 20.095,115.651 20.700 M70.902 58.775 C 71.184 64.894,71.035 64.780,74.963 61.875 C 76.804 60.514,78.227 59.261,78.126 59.091 C 77.802 58.547,71.521 54.000,71.094 54.000 C 70.823 54.000,70.757 55.628,70.902 58.775 M120.200 121.499 C 100.310 122.729,78.410 137.998,66.038 159.260 C 54.194 179.615,49.764 207.919,54.811 231.000 C 55.003 231.880,55.374 233.590,55.634 234.800 C 56.506 238.861,58.319 244.701,60.663 251.000 C 67.588 269.608,83.516 287.890,100.867 297.146 C 117.238 305.879,139.467 307.910,147.972 301.450 C 152.261 298.192,156.681 290.490,158.847 282.500 C 159.829 278.879,160.071 277.840,160.962 273.400 C 161.929 268.580,162.476 264.544,163.206 256.858 C 163.712 251.532,163.709 228.046,163.202 221.800 C 161.916 205.977,160.667 196.680,158.151 184.200 C 157.796 182.440,157.360 180.277,157.182 179.394 C 155.994 173.486,152.510 161.210,150.202 154.800 C 149.327 152.369,148.993 151.527,147.269 147.400 C 139.997 130.002,130.449 120.865,120.200 121.499 M99.600 158.506 C 105.572 160.613,112.322 168.475,114.793 176.200 C 115.074 177.080,115.439 177.980,115.604 178.200 C 116.406 179.269,119.325 190.146,120.353 195.900 C 122.020 205.227,122.346 207.885,123.601 222.421 C 125.257 241.604,122.114 259.511,115.872 266.461 C 105.837 277.633,90.316 261.955,84.829 235.105 C 82.249 222.478,81.652 217.098,81.329 203.562 C 81.043 191.558,80.994 191.746,83.871 193.694 C 95.907 201.843,103.951 176.489,93.932 161.983 C 92.211 159.491,92.099 159.015,93.100 158.432 C 94.071 157.867,97.912 157.910,99.600 158.506 M87.375 358.638 C 87.545 359.057,87.829 359.884,88.007 360.476 C 88.487 362.074,91.225 368.393,92.134 370.000 C 92.569 370.770,93.122 371.766,93.363 372.213 C 95.198 375.624,95.621 375.661,98.379 372.647 C 100.650 370.165,105.600 362.123,105.600 360.916 C 105.600 360.694,104.115 360.395,102.300 360.251 C 98.953 359.986,95.822 359.537,92.200 358.802 C 87.350 357.819,87.039 357.808,87.375 358.638 " stroke="none" fill="#fbfafa" fill-rule="evenodd"></path><path id="path1" d="M106.235 1.244 C 105.706 1.660,105.156 2.000,105.011 2.000 C 104.569 2.000,100.394 6.534,99.854 7.600 C 99.575 8.150,99.160 8.960,98.931 9.400 C 98.702 9.840,98.219 10.768,97.857 11.462 C 97.496 12.156,97.199 12.966,97.198 13.262 C 97.196 13.558,96.892 14.340,96.521 15.000 C 96.057 15.825,95.845 17.136,95.841 19.198 C 95.838 20.874,95.721 21.756,95.577 21.198 C 95.209 19.777,94.610 22.749,94.936 24.378 C 95.095 25.177,94.988 25.596,94.583 25.751 C 94.093 25.939,94.000 27.613,94.000 36.185 L 94.000 46.395 92.935 45.497 C 92.349 45.004,91.589 44.285,91.246 43.900 C 90.903 43.515,90.474 43.200,90.293 43.200 C 90.112 43.200,89.499 42.735,88.930 42.167 C 88.335 41.571,87.602 41.211,87.199 41.316 C 86.677 41.453,86.551 41.310,86.697 40.749 C 86.805 40.337,86.692 40.000,86.447 40.000 C 86.201 40.000,85.625 39.625,85.167 39.167 C 84.207 38.207,83.609 38.445,84.443 39.455 C 84.924 40.038,84.918 40.103,84.400 39.934 C 84.070 39.826,83.742 39.346,83.672 38.868 C 83.539 37.961,82.236 37.007,81.637 37.377 C 81.447 37.495,81.199 37.239,81.086 36.809 C 80.974 36.378,80.188 35.732,79.341 35.372 C 78.493 35.012,76.990 34.309,76.000 33.810 C 75.010 33.311,73.975 32.985,73.700 33.085 C 73.425 33.185,73.200 33.072,73.200 32.833 C 73.200 32.593,72.475 32.400,71.576 32.400 C 70.683 32.400,70.036 32.535,70.138 32.700 C 70.240 32.865,69.098 33.000,67.600 33.000 C 66.102 33.000,64.960 32.865,65.062 32.700 C 65.164 32.535,64.724 32.400,64.085 32.400 C 62.788 32.400,60.400 33.456,60.400 34.029 C 60.400 34.233,60.168 34.400,59.885 34.400 C 58.317 34.400,52.953 41.392,53.412 42.838 C 53.568 43.330,53.463 43.600,53.114 43.600 C 52.457 43.600,51.436 46.852,51.766 47.893 C 51.897 48.305,51.739 48.993,51.415 49.421 C 50.654 50.426,50.521 63.561,51.264 64.304 C 51.519 64.559,51.705 65.630,51.678 66.684 C 51.630 68.511,51.995 71.105,52.791 74.600 C 53.662 78.426,53.815 77.986,50.360 81.592 C 48.361 83.679,47.209 85.192,47.314 85.593 C 47.426 86.023,47.204 86.260,46.650 86.301 C 46.191 86.336,45.514 86.777,45.144 87.282 C 44.775 87.787,44.008 88.739,43.440 89.397 C 42.770 90.174,42.486 90.876,42.630 91.397 C 42.781 91.941,42.737 92.035,42.495 91.688 C 42.169 91.220,38.534 94.833,38.050 96.106 C 37.967 96.323,37.554 96.883,37.131 97.350 C 35.507 99.147,34.659 100.307,32.272 104.000 C 31.917 104.550,31.125 105.720,30.513 106.600 C 29.901 107.480,29.145 108.695,28.832 109.300 C 28.520 109.905,28.115 110.400,27.932 110.400 C 27.750 110.400,27.600 110.642,27.600 110.938 C 27.600 111.234,27.240 111.802,26.800 112.200 C 26.360 112.598,26.000 113.197,26.000 113.530 C 26.000 113.864,25.715 114.452,25.367 114.837 C 24.615 115.668,23.274 117.914,22.942 118.900 C 22.813 119.285,22.556 119.600,22.371 119.600 C 22.187 119.600,21.918 120.230,21.774 121.000 C 21.629 121.770,21.281 122.400,21.000 122.400 C 20.719 122.400,20.369 123.039,20.222 123.821 C 20.076 124.603,19.701 125.340,19.389 125.460 C 18.883 125.654,18.112 128.133,18.319 128.900 C 18.364 129.065,18.155 129.200,17.855 129.200 C 17.555 129.200,16.835 130.258,16.255 131.550 C 15.118 134.083,14.974 134.800,15.600 134.800 C 15.820 134.800,16.000 134.541,16.000 134.224 C 16.000 133.907,16.178 133.537,16.395 133.403 C 16.646 133.248,16.666 133.493,16.451 134.080 C 16.265 134.586,15.714 135.059,15.227 135.132 C 14.434 135.250,14.362 135.439,14.549 136.932 C 14.664 137.849,14.664 138.285,14.550 137.900 C 14.257 136.917,13.806 137.029,13.264 138.219 C 12.686 139.489,12.669 140.400,13.224 140.400 C 13.457 140.400,13.541 140.572,13.411 140.783 C 13.281 140.993,12.910 141.064,12.587 140.940 C 12.185 140.786,12.000 140.981,12.000 141.557 C 12.000 142.021,11.806 142.400,11.570 142.400 C 11.329 142.400,11.196 142.936,11.267 143.616 C 11.337 144.285,11.216 144.960,10.997 145.116 C 9.834 145.945,8.453 150.727,9.226 151.247 C 9.690 151.559,9.662 151.611,9.079 151.517 C 8.499 151.423,8.159 152.027,7.345 154.600 C 6.789 156.360,6.169 158.113,5.967 158.495 C 5.435 159.501,5.517 161.496,6.100 161.755 C 6.375 161.877,6.240 161.937,5.800 161.888 C 5.237 161.826,5.000 162.037,5.000 162.600 C 5.000 163.040,5.207 163.361,5.460 163.313 C 5.775 163.254,5.852 163.760,5.705 164.913 C 5.426 167.104,5.200 167.329,5.200 165.418 C 5.200 164.116,5.115 163.972,4.600 164.400 C 3.917 164.967,3.802 166.231,4.400 166.600 C 5.005 166.974,4.879 167.600,4.200 167.600 C 3.780 167.600,3.600 168.024,3.600 169.013 C 3.600 169.843,3.373 170.512,3.049 170.636 C 2.691 170.774,2.405 171.850,2.231 173.724 C 2.084 175.306,1.685 177.462,1.345 178.515 C 0.670 180.602,0.859 181.816,1.803 181.454 C 2.132 181.328,2.397 181.444,2.394 181.713 C 2.382 182.619,1.740 183.229,1.068 182.971 C 0.489 182.749,0.400 183.040,0.400 185.157 C 0.400 186.501,0.535 187.600,0.700 187.600 C 0.865 187.600,0.880 189.625,0.734 192.100 C 0.388 197.933,0.388 228.867,0.734 234.700 C 0.880 237.175,0.865 239.200,0.700 239.200 C 0.535 239.200,0.400 240.209,0.400 241.443 C 0.400 243.262,0.512 243.643,0.994 243.458 C 1.339 243.325,1.758 243.547,1.994 243.989 C 2.575 245.074,2.495 245.722,1.813 245.460 C 0.937 245.124,0.780 245.696,1.268 247.438 C 1.639 248.761,1.752 248.878,2.009 248.200 C 2.176 247.760,2.215 248.553,2.095 249.961 C 1.931 251.891,1.996 252.450,2.356 252.227 C 3.592 251.463,4.090 252.858,3.804 256.284 C 3.572 259.074,3.619 259.568,4.100 259.383 C 4.939 259.061,5.683 260.183,5.489 261.476 C 5.327 262.552,5.317 262.545,5.260 261.300 C 5.227 260.585,5.014 260.000,4.787 260.000 C 4.089 260.000,3.912 261.089,4.451 262.069 C 4.733 262.581,4.919 263.293,4.865 263.651 C 4.811 264.009,5.134 265.269,5.583 266.451 C 6.032 267.633,6.400 269.026,6.400 269.547 C 6.400 270.285,6.570 270.449,7.173 270.291 C 7.858 270.112,7.901 270.208,7.551 271.129 C 7.300 271.788,7.293 272.468,7.532 272.985 C 7.739 273.433,8.138 274.565,8.418 275.500 C 8.699 276.435,9.144 277.200,9.409 277.200 C 9.703 277.200,9.816 277.580,9.701 278.184 C 9.597 278.729,9.889 279.944,10.356 280.910 C 10.820 281.868,11.200 282.956,11.200 283.326 C 11.200 283.697,11.380 284.000,11.600 284.000 C 11.820 284.000,12.000 284.349,12.000 284.776 C 12.000 285.705,12.650 286.213,12.929 285.502 C 13.038 285.226,13.030 285.675,12.911 286.500 C 12.761 287.542,12.847 288.000,13.190 288.000 C 13.463 288.000,13.587 288.257,13.467 288.571 C 13.346 288.885,13.507 289.357,13.824 289.620 C 14.141 289.883,14.400 290.436,14.400 290.849 C 14.400 291.262,14.580 291.600,14.800 291.600 C 15.020 291.600,15.200 291.960,15.200 292.400 C 15.200 292.840,15.380 293.200,15.600 293.200 C 15.820 293.200,16.000 293.560,16.000 294.000 C 16.000 294.440,16.180 294.800,16.400 294.800 C 16.620 294.800,16.800 295.160,16.800 295.600 C 16.800 296.040,16.963 296.400,17.163 296.400 C 17.362 296.400,17.438 296.733,17.331 297.140 C 17.225 297.548,17.387 298.133,17.691 298.440 C 17.995 298.748,18.834 300.215,19.555 301.700 C 20.277 303.185,21.032 304.400,21.233 304.400 C 21.435 304.400,21.600 304.657,21.600 304.971 C 21.600 305.286,21.886 305.829,22.237 306.179 C 22.587 306.530,22.928 307.037,22.995 307.308 C 23.367 308.802,23.733 309.600,24.047 309.600 C 24.241 309.600,24.400 309.960,24.400 310.400 C 24.400 310.840,24.580 311.200,24.800 311.200 C 25.020 311.200,25.200 311.436,25.200 311.725 C 25.200 312.013,25.560 312.636,26.000 313.108 C 26.440 313.580,26.800 314.244,26.800 314.583 C 26.800 314.922,26.959 315.200,27.153 315.200 C 27.348 315.200,27.604 315.573,27.724 316.030 C 27.843 316.486,28.269 316.945,28.670 317.050 C 29.324 317.221,29.386 317.632,29.261 321.020 C 29.150 324.071,29.232 324.800,29.686 324.800 C 30.108 324.800,30.246 325.380,30.233 327.100 C 30.211 330.030,31.060 334.664,31.817 335.745 C 32.137 336.203,32.400 336.898,32.400 337.289 C 32.400 337.680,32.591 338.000,32.824 338.000 C 33.057 338.000,33.137 338.179,33.001 338.398 C 32.866 338.616,33.216 339.398,33.778 340.135 C 34.340 340.872,34.800 341.654,34.800 341.871 C 34.800 342.089,35.355 342.792,36.032 343.433 C 36.710 344.075,37.560 344.915,37.921 345.300 C 38.282 345.685,38.898 346.000,39.289 346.000 C 39.680 346.000,40.000 346.291,40.000 346.647 C 40.000 347.097,40.244 347.230,40.801 347.084 C 41.241 346.969,41.499 347.039,41.375 347.240 C 41.251 347.441,41.449 347.721,41.815 347.861 C 42.181 348.002,42.622 347.887,42.796 347.607 C 43.212 346.934,44.029 347.459,43.740 348.213 C 43.374 349.166,49.168 349.029,50.924 348.043 L 52.272 347.286 55.247 350.166 C 56.883 351.750,58.532 353.165,58.911 353.310 C 59.290 353.456,59.600 353.851,59.600 354.187 C 59.600 354.533,59.948 354.800,60.400 354.800 C 60.844 354.800,61.200 355.067,61.200 355.400 C 61.200 355.730,61.341 356.000,61.513 356.000 C 62.011 356.000,67.200 361.018,67.200 361.499 C 67.200 361.738,67.401 362.000,67.646 362.082 C 67.891 362.164,68.144 362.708,68.208 363.292 C 68.272 363.876,68.472 364.590,68.652 364.877 C 68.833 365.165,68.932 365.693,68.873 366.051 C 68.814 366.409,69.041 366.807,69.376 366.936 C 69.712 367.064,69.894 367.411,69.781 367.706 C 69.472 368.510,70.723 371.200,71.405 371.200 C 71.732 371.200,72.000 371.391,72.000 371.624 C 72.000 371.857,71.820 371.936,71.600 371.800 C 71.107 371.495,71.081 372.174,71.550 373.105 C 73.048 376.080,73.600 377.353,73.600 377.838 C 73.600 378.147,73.735 378.401,73.900 378.403 C 74.235 378.407,75.200 380.323,75.200 380.984 C 75.200 381.217,75.560 381.632,76.000 381.907 C 76.440 382.182,76.800 382.675,76.800 383.003 C 76.800 383.332,76.980 383.600,77.200 383.600 C 77.420 383.600,77.600 383.870,77.600 384.200 C 77.600 384.530,77.915 385.123,78.300 385.517 C 78.685 385.912,79.360 386.741,79.800 387.360 C 81.165 389.278,83.730 391.636,84.240 391.440 C 84.510 391.337,84.836 391.688,84.971 392.227 C 85.105 392.762,85.482 393.200,85.808 393.200 C 86.133 393.200,86.401 393.335,86.403 393.500 C 86.407 393.859,88.344 394.800,89.080 394.800 C 89.366 394.800,89.600 394.936,89.600 395.103 C 89.600 395.688,92.817 396.400,95.465 396.400 C 98.454 396.400,100.800 395.730,100.800 394.877 C 100.800 394.520,101.040 394.406,101.456 394.566 C 102.148 394.832,104.400 394.018,104.400 393.502 C 104.400 393.336,104.647 393.200,104.950 393.200 C 105.465 393.200,106.630 392.245,110.000 389.060 C 111.796 387.363,112.466 386.963,112.155 387.774 C 111.995 388.190,112.263 388.520,112.985 388.794 C 114.533 389.383,115.199 389.295,115.206 388.500 C 115.210 388.056,115.320 387.966,115.506 388.254 C 115.668 388.503,116.160 388.797,116.600 388.907 C 117.191 389.055,117.099 389.119,116.251 389.154 C 115.254 389.194,115.171 389.283,115.623 389.828 C 115.910 390.173,116.472 390.370,116.872 390.265 C 117.272 390.161,117.700 390.238,117.823 390.438 C 117.946 390.637,118.407 390.800,118.847 390.800 C 119.287 390.800,119.546 390.637,119.423 390.437 C 119.300 390.238,119.600 390.179,120.089 390.307 C 120.579 390.435,120.759 390.614,120.490 390.703 C 119.145 391.152,121.797 392.608,123.401 392.302 C 123.958 392.195,124.327 392.300,124.280 392.550 C 124.236 392.787,124.605 393.043,125.100 393.118 C 125.595 393.194,126.000 393.423,126.000 393.628 C 126.000 393.833,126.619 394.000,127.376 394.000 C 128.133 394.000,128.864 394.180,129.000 394.400 C 129.330 394.934,131.200 394.914,131.200 394.376 C 131.200 394.143,131.372 394.059,131.583 394.189 C 131.793 394.319,131.864 394.690,131.740 395.013 C 131.568 395.461,131.850 395.600,132.934 395.600 C 133.714 395.600,134.464 395.780,134.600 396.000 C 134.992 396.635,136.400 396.466,136.400 395.784 C 136.400 395.277,136.499 395.260,136.962 395.684 C 137.271 395.968,137.496 396.380,137.462 396.600 C 137.428 396.820,138.030 396.990,138.800 396.978 C 139.570 396.966,140.344 397.191,140.520 397.478 C 140.958 398.192,142.772 398.138,143.054 397.402 C 143.181 397.074,143.457 396.912,143.669 397.043 C 143.881 397.174,143.963 397.521,143.850 397.814 C 143.622 398.408,145.689 399.039,146.408 398.595 C 146.643 398.450,147.322 398.654,147.918 399.048 C 149.140 399.858,189.361 400.368,200.300 399.712 C 203.429 399.524,205.600 399.543,205.600 399.756 C 205.600 400.212,213.186 399.709,213.783 399.214 C 214.021 399.017,215.022 398.798,216.008 398.728 C 217.462 398.624,217.800 398.456,217.800 397.834 C 217.800 397.413,218.025 396.993,218.300 396.901 C 218.575 396.809,218.800 397.038,218.800 397.410 C 218.800 397.972,219.055 398.043,220.300 397.828 C 221.125 397.686,222.476 397.467,223.303 397.342 C 224.129 397.218,224.905 396.955,225.026 396.758 C 225.148 396.561,225.691 396.400,226.234 396.400 C 226.918 396.400,227.336 396.093,227.600 395.400 C 227.809 394.850,228.069 394.400,228.178 394.400 C 228.286 394.400,228.271 394.670,228.145 395.000 C 227.991 395.402,228.160 395.598,228.657 395.594 C 229.749 395.585,232.611 394.499,232.533 394.123 C 232.496 393.946,233.126 393.800,233.933 393.800 C 234.754 393.800,235.367 393.612,235.324 393.373 C 235.280 393.122,235.715 393.014,236.377 393.111 C 236.998 393.202,237.627 393.080,237.776 392.838 C 237.925 392.597,238.506 392.400,239.066 392.400 C 239.786 392.400,240.021 392.232,239.866 391.828 C 239.706 391.410,239.937 391.275,240.723 391.328 C 241.349 391.370,241.764 391.208,241.714 390.941 C 241.663 390.670,241.947 390.566,242.408 390.686 C 242.837 390.798,243.506 390.751,243.894 390.582 C 244.282 390.413,244.801 390.305,245.047 390.342 C 245.292 390.380,245.719 390.138,245.996 389.805 C 246.272 389.472,246.847 389.200,247.273 389.200 C 247.757 389.200,247.940 389.027,247.761 388.737 C 247.565 388.420,247.746 388.345,248.337 388.499 C 248.811 388.623,249.300 388.562,249.423 388.362 C 249.546 388.163,249.930 388.000,250.276 388.000 C 250.622 388.000,251.554 387.599,252.346 387.110 C 253.138 386.620,254.031 386.184,254.330 386.140 C 255.141 386.021,255.437 385.593,254.927 385.278 C 254.679 385.125,255.297 384.982,256.300 384.960 C 257.495 384.934,258.289 384.694,258.604 384.262 C 258.869 383.899,259.652 383.490,260.343 383.351 C 261.594 383.101,262.053 382.214,261.100 381.887 C 260.825 381.792,260.942 381.769,261.359 381.836 C 262.600 382.033,264.400 381.538,264.400 381.000 C 264.400 380.725,264.939 380.392,265.598 380.260 C 267.242 379.932,268.983 378.760,268.381 378.388 C 268.045 378.180,268.038 378.024,268.357 377.826 C 268.601 377.676,268.800 377.743,268.800 377.976 C 268.800 378.209,269.070 378.400,269.400 378.400 C 269.730 378.400,270.000 378.119,270.000 377.776 C 270.000 377.433,270.176 377.262,270.391 377.395 C 270.711 377.592,272.791 376.425,273.600 375.595 C 273.710 375.482,274.655 374.958,275.700 374.432 C 276.745 373.905,277.600 373.323,277.600 373.137 C 277.600 372.952,277.915 372.794,278.300 372.787 C 279.425 372.767,281.317 370.884,281.014 370.087 C 280.809 369.548,280.858 369.504,281.241 369.885 C 281.805 370.445,283.308 369.747,285.514 367.900 C 286.237 367.295,286.957 366.797,287.114 366.794 C 287.271 366.791,288.157 366.116,289.083 365.294 C 290.008 364.472,291.313 363.375,291.983 362.855 C 292.652 362.335,293.200 361.650,293.200 361.331 C 293.200 361.013,293.359 360.851,293.553 360.971 C 293.894 361.182,295.243 360.278,297.085 358.604 C 297.572 358.162,298.624 357.260,299.424 356.600 C 300.224 355.940,302.245 354.095,303.916 352.500 C 305.586 350.905,307.086 349.600,307.249 349.600 C 307.413 349.600,307.660 349.240,307.800 348.800 C 307.940 348.360,308.312 348.000,308.627 348.000 C 308.942 348.000,309.200 347.844,309.200 347.654 C 309.200 347.464,310.055 346.405,311.100 345.301 C 313.512 342.753,316.800 339.099,316.800 338.967 C 316.800 338.911,317.543 338.092,318.451 337.147 C 319.359 336.202,320.544 334.760,321.084 333.944 C 321.625 333.128,322.322 332.362,322.633 332.243 C 322.945 332.123,323.200 331.784,323.200 331.488 C 323.200 331.193,323.701 330.423,324.314 329.776 C 324.927 329.129,325.782 328.078,326.214 327.440 C 326.646 326.803,327.270 325.884,327.600 325.398 C 327.930 324.913,328.965 323.365,329.899 321.958 C 330.833 320.551,331.783 319.130,332.009 318.800 C 332.234 318.470,332.772 317.615,333.204 316.900 C 333.635 316.185,334.163 315.600,334.376 315.600 C 334.589 315.600,334.882 314.970,335.026 314.200 C 335.171 313.430,335.516 312.800,335.793 312.800 C 336.069 312.800,336.522 311.993,336.798 311.007 C 337.074 310.021,337.444 309.304,337.621 309.413 C 337.798 309.522,338.063 309.231,338.211 308.766 C 338.872 306.683,340.310 305.996,341.427 307.230 C 341.900 307.752,342.510 307.996,343.077 307.887 C 343.571 307.793,343.880 307.871,343.762 308.061 C 343.309 308.795,344.810 309.698,346.067 309.447 C 347.128 309.234,347.229 309.283,346.800 309.800 C 346.526 310.130,346.470 310.400,346.676 310.400 C 346.881 310.400,347.407 310.715,347.845 311.100 C 348.970 312.089,350.286 312.800,350.995 312.800 C 351.328 312.800,351.600 312.984,351.600 313.210 C 351.600 313.435,352.050 313.791,352.600 314.000 C 353.150 314.209,353.600 314.565,353.600 314.790 C 353.600 315.016,353.926 315.200,354.325 315.200 C 354.723 315.200,355.440 315.564,355.917 316.008 C 356.394 316.453,357.328 316.926,357.992 317.058 C 358.657 317.191,359.200 317.547,359.200 317.850 C 359.200 318.425,360.211 318.620,360.501 318.100 C 360.593 317.935,360.622 318.003,360.566 318.251 C 360.420 318.890,361.227 319.600,362.099 319.600 C 362.506 319.600,363.252 320.080,363.756 320.667 C 364.416 321.434,365.077 321.744,366.101 321.767 C 367.154 321.791,367.425 321.925,367.136 322.275 C 366.852 322.619,367.349 323.036,368.933 323.786 C 370.137 324.355,371.224 325.087,371.349 325.411 C 371.473 325.735,371.868 326.000,372.226 326.000 C 372.584 326.000,373.406 326.377,374.052 326.837 C 374.699 327.298,375.501 327.570,375.835 327.442 C 376.169 327.314,376.351 327.355,376.241 327.533 C 375.978 327.958,377.441 329.200,378.205 329.200 C 378.532 329.200,378.800 329.380,378.800 329.600 C 378.800 329.820,378.990 330.000,379.222 330.000 C 379.454 330.000,380.710 330.724,382.014 331.610 C 383.832 332.844,384.642 333.169,385.492 333.003 C 386.405 332.826,386.459 332.854,385.800 333.166 C 385.330 333.388,385.229 333.555,385.556 333.572 C 385.862 333.587,386.353 333.915,386.648 334.300 C 387.117 334.912,387.235 334.925,387.586 334.400 C 387.939 333.872,388.162 334.088,388.061 334.860 C 388.006 335.276,389.666 335.538,391.400 335.387 C 392.280 335.310,393.326 335.237,393.724 335.224 C 394.122 335.211,394.356 335.053,394.245 334.872 C 394.133 334.692,394.528 334.615,395.121 334.702 C 395.985 334.827,396.344 334.614,396.923 333.629 C 397.320 332.953,397.781 332.400,397.947 332.400 C 399.560 332.400,399.922 330.940,399.946 324.345 L 399.970 317.849 398.330 316.335 C 396.858 314.977,395.566 314.574,396.255 315.689 C 396.415 315.949,396.337 316.009,396.062 315.838 C 395.808 315.681,395.600 315.203,395.600 314.776 C 395.600 314.349,395.358 314.000,395.062 314.000 C 394.766 314.000,394.196 313.637,393.795 313.194 C 393.343 312.695,392.787 312.477,392.333 312.621 C 391.832 312.780,391.600 312.652,391.600 312.218 C 391.600 311.869,391.105 311.365,390.500 311.100 C 389.895 310.834,389.283 310.451,389.140 310.250 C 388.998 310.048,388.595 309.993,388.245 310.127 C 387.896 310.261,387.652 310.182,387.705 309.950 C 387.858 309.275,385.109 307.956,384.000 308.173 C 383.450 308.280,383.225 308.270,383.500 308.151 C 384.416 307.753,384.016 306.867,382.800 306.600 C 382.140 306.455,381.600 306.156,381.600 305.935 C 381.600 305.714,381.375 305.616,381.100 305.717 C 380.825 305.818,380.649 306.116,380.710 306.380 C 380.770 306.644,380.635 306.745,380.410 306.606 C 380.184 306.467,380.000 305.984,380.000 305.533 C 380.000 304.843,379.825 304.754,378.900 304.969 C 378.099 305.155,377.963 305.117,378.398 304.828 C 379.108 304.357,377.928 303.235,376.700 303.213 C 376.315 303.206,376.000 302.999,376.000 302.753 C 376.000 302.497,375.643 302.400,375.160 302.526 C 374.699 302.647,374.429 302.638,374.561 302.505 C 374.910 302.156,373.580 300.800,372.889 300.800 C 372.413 300.800,372.396 300.913,372.800 301.400 C 373.447 302.180,372.923 302.180,372.143 301.400 C 371.746 301.003,371.705 300.800,372.020 300.800 C 372.379 300.800,372.372 300.648,371.994 300.193 C 371.287 299.341,368.924 298.276,368.425 298.585 C 368.189 298.731,368.099 298.608,368.217 298.300 C 368.349 297.956,367.911 297.557,367.012 297.205 C 366.236 296.900,365.600 296.504,365.600 296.325 C 365.600 296.146,365.429 296.000,365.220 296.000 C 365.011 296.000,364.040 295.460,363.062 294.800 C 362.084 294.140,361.085 293.600,360.842 293.600 C 360.599 293.600,360.400 293.441,360.400 293.247 C 360.400 293.052,360.085 292.790,359.700 292.664 C 359.315 292.538,358.208 291.965,357.241 291.390 C 355.839 290.558,355.406 290.453,355.110 290.873 C 354.819 291.287,354.775 291.271,354.905 290.800 C 355.203 289.728,351.890 287.751,351.533 288.787 C 351.448 289.034,351.182 289.036,350.800 288.793 C 350.288 288.468,350.303 288.411,350.900 288.406 C 351.989 288.397,351.725 287.722,350.404 287.137 C 349.210 286.609,349.075 285.658,350.045 284.620 C 350.240 284.411,350.400 283.921,350.400 283.532 C 350.400 283.143,350.773 282.160,351.230 281.347 C 351.686 280.535,351.973 279.539,351.867 279.135 C 351.761 278.731,351.819 278.400,351.995 278.400 C 352.601 278.400,352.812 277.097,352.307 276.474 C 351.878 275.946,351.907 275.890,352.500 276.113 C 352.981 276.293,353.200 276.178,353.200 275.748 C 353.200 275.403,353.498 274.492,353.863 273.723 C 354.379 272.636,354.416 272.257,354.030 272.018 C 353.656 271.787,353.690 271.651,354.166 271.468 C 354.515 271.335,354.800 270.874,354.800 270.445 C 354.800 269.303,355.231 268.372,355.642 268.626 C 355.839 268.748,356.000 268.397,356.000 267.847 C 356.000 266.652,355.265 266.077,354.725 266.849 C 354.408 267.301,354.370 267.292,354.514 266.800 C 354.612 266.463,355.064 266.242,355.544 266.295 C 356.268 266.376,356.400 266.183,356.400 265.044 C 356.400 264.304,356.679 263.467,357.019 263.184 C 357.903 262.451,357.614 260.963,356.622 261.136 C 355.932 261.256,355.907 261.194,356.407 260.592 C 356.756 260.172,357.028 260.083,357.120 260.359 C 357.412 261.236,358.000 260.328,358.000 259.000 C 358.000 258.256,358.180 257.536,358.400 257.400 C 359.141 256.942,358.898 253.877,358.143 254.166 C 357.647 254.357,357.589 254.294,357.905 253.909 C 358.135 253.629,358.406 252.950,358.507 252.400 C 358.660 251.570,358.700 251.625,358.746 252.724 C 358.822 254.594,359.600 253.914,359.600 251.976 C 359.600 251.109,359.755 250.400,359.945 250.400 C 360.313 250.400,360.869 246.312,360.950 243.000 C 360.978 241.900,361.207 240.820,361.461 240.600 C 361.714 240.380,362.034 238.670,362.171 236.800 C 362.308 234.930,362.523 232.445,362.650 231.277 C 362.934 228.658,362.481 225.764,361.980 227.000 C 361.528 228.116,361.526 225.980,361.977 223.800 L 362.308 222.200 362.354 223.700 C 362.387 224.770,362.578 225.200,363.022 225.200 C 363.514 225.200,363.618 224.804,363.522 223.300 C 363.441 222.042,363.231 221.434,362.900 221.500 C 362.191 221.642,362.277 220.822,363.000 220.545 C 363.503 220.352,363.600 219.125,363.600 212.934 C 363.600 208.480,363.452 205.644,363.228 205.783 C 363.023 205.909,362.742 205.830,362.604 205.607 C 362.466 205.383,362.633 205.200,362.976 205.200 C 363.437 205.200,363.600 204.782,363.600 203.600 C 363.600 201.553,362.426 201.271,362.354 203.300 C 362.309 204.568,362.300 204.560,361.977 203.000 C 361.795 202.120,361.661 200.680,361.680 199.800 L 361.714 198.200 361.978 199.800 C 362.238 201.366,362.250 201.345,362.553 198.800 C 362.727 197.331,362.694 195.330,362.476 194.200 C 362.116 192.336,362.084 192.295,362.004 193.600 L 361.918 195.000 361.589 193.800 C 361.409 193.140,361.136 192.195,360.984 191.700 C 360.694 190.758,361.371 190.398,361.735 191.300 C 361.846 191.575,361.951 190.844,361.968 189.676 C 361.992 188.087,361.874 187.624,361.500 187.835 C 361.100 188.061,361.100 188.010,361.500 187.579 C 362.078 186.956,362.172 185.600,361.637 185.600 C 361.437 185.600,361.167 184.610,361.037 183.400 C 360.907 182.190,360.693 180.197,360.561 178.972 C 360.383 177.311,360.183 176.798,359.774 176.955 C 359.115 177.207,358.615 176.561,359.193 176.204 C 359.718 175.880,359.723 173.323,359.200 173.000 C 358.967 172.856,358.783 173.304,358.759 174.076 L 358.718 175.400 358.386 174.000 C 358.190 173.172,358.207 172.546,358.427 172.467 C 359.356 172.135,358.840 169.135,357.900 169.399 C 357.291 169.571,357.171 169.534,357.530 169.284 C 358.395 168.683,357.979 166.169,357.040 166.331 C 356.334 166.453,356.327 166.416,356.940 165.803 C 357.762 164.981,357.787 163.844,357.000 163.057 C 356.670 162.727,356.400 161.994,356.400 161.429 C 356.400 160.677,356.191 160.400,355.624 160.400 C 355.197 160.400,354.746 160.237,354.623 160.037 C 354.500 159.838,354.759 159.769,355.199 159.884 C 356.196 160.145,356.341 158.398,355.400 157.457 C 355.070 157.127,354.800 156.490,354.800 156.041 C 354.800 155.523,354.604 155.300,354.264 155.431 C 353.301 155.800,352.682 154.542,353.021 152.904 C 353.383 151.160,353.326 150.637,352.592 149.000 C 352.296 148.340,351.986 147.440,351.903 147.000 C 351.820 146.560,351.543 146.243,351.287 146.296 C 350.975 146.361,350.900 145.999,351.061 145.196 C 351.213 144.435,351.136 144.000,350.850 144.000 C 350.603 144.000,350.400 143.751,350.400 143.446 C 350.400 143.141,350.144 142.398,349.832 141.796 C 349.118 140.420,349.361 139.773,350.836 139.120 C 351.476 138.837,352.000 138.502,352.000 138.377 C 352.000 138.252,352.630 137.902,353.400 137.600 C 354.170 137.298,354.800 136.904,354.800 136.725 C 354.800 136.546,355.089 136.400,355.443 136.400 C 355.874 136.400,356.003 136.184,355.834 135.743 C 355.629 135.211,355.690 135.177,356.155 135.563 C 356.553 135.893,356.810 135.908,356.992 135.613 C 357.136 135.379,357.879 134.927,358.641 134.608 C 359.404 134.290,360.305 133.753,360.643 133.415 C 360.981 133.077,361.514 132.800,361.829 132.800 C 362.143 132.800,362.400 132.616,362.400 132.390 C 362.400 132.165,362.839 131.813,363.376 131.609 C 363.912 131.405,365.577 130.485,367.076 129.564 C 368.574 128.643,370.475 127.521,371.300 127.070 C 372.125 126.620,372.800 126.105,372.800 125.926 C 372.800 125.747,373.160 125.600,373.600 125.600 C 374.040 125.600,374.400 125.432,374.400 125.227 C 374.400 125.022,374.739 124.746,375.152 124.615 C 375.566 124.484,376.329 124.009,376.847 123.559 C 377.365 123.110,378.293 122.641,378.909 122.518 C 380.152 122.270,381.135 120.974,380.299 120.687 C 380.024 120.593,380.194 120.581,380.675 120.660 C 381.860 120.853,384.510 119.263,384.227 118.526 C 384.100 118.195,384.184 118.066,384.427 118.217 C 385.090 118.627,386.548 118.109,387.825 117.012 C 388.471 116.456,389.238 116.001,389.529 116.000 C 390.245 116.000,391.088 115.109,390.962 114.486 C 390.906 114.208,390.952 114.165,391.063 114.390 C 391.455 115.180,392.505 114.845,392.284 114.000 C 392.169 113.561,392.238 113.100,392.438 112.977 C 392.637 112.854,392.800 112.963,392.800 113.220 C 392.800 113.796,394.668 113.389,395.404 112.653 C 395.683 112.374,396.483 111.664,397.182 111.077 C 397.881 110.489,398.337 109.822,398.196 109.594 C 398.056 109.366,398.089 109.213,398.270 109.254 C 399.756 109.584,399.929 108.863,399.947 102.237 L 399.965 95.733 398.283 94.165 C 395.658 91.720,393.600 90.851,393.600 92.187 C 393.600 92.548,393.366 92.685,392.993 92.542 C 392.659 92.414,392.434 92.021,392.493 91.669 C 392.611 90.961,391.522 90.591,390.488 90.988 C 389.950 91.194,389.927 91.308,390.365 91.579 C 390.790 91.841,390.723 92.013,390.054 92.371 C 389.354 92.746,389.200 92.717,389.200 92.214 C 389.200 91.556,388.838 91.457,387.835 91.842 C 387.488 91.975,387.294 92.228,387.403 92.405 C 387.512 92.581,387.253 92.634,386.827 92.523 C 386.367 92.403,385.685 92.662,385.151 93.160 C 384.655 93.622,383.744 94.224,383.125 94.497 C 382.506 94.771,382.000 95.131,382.000 95.298 C 382.000 95.464,381.699 95.600,381.331 95.600 C 380.964 95.600,380.333 95.899,379.929 96.264 C 379.133 96.984,377.921 97.730,376.500 98.373 C 376.005 98.597,375.600 98.975,375.600 99.214 C 375.600 99.452,375.444 99.551,375.254 99.433 C 374.952 99.247,373.952 99.781,370.600 101.919 C 370.160 102.199,369.305 102.642,368.700 102.902 C 367.541 103.401,367.260 104.177,368.100 104.563 C 368.375 104.689,368.172 104.685,367.650 104.553 C 367.087 104.412,366.797 104.471,366.938 104.699 C 367.076 104.923,366.762 105.005,366.188 104.896 C 365.614 104.786,365.200 104.894,365.200 105.153 C 365.200 105.399,364.930 105.600,364.600 105.600 C 364.270 105.600,364.000 105.736,364.000 105.902 C 364.000 106.069,363.417 106.463,362.705 106.778 C 361.028 107.520,357.439 109.713,357.267 110.100 C 357.193 110.265,356.878 110.400,356.567 110.400 C 356.255 110.400,356.000 110.599,356.000 110.843 C 356.000 111.086,355.730 111.182,355.400 111.055 C 355.070 110.929,354.800 110.997,354.800 111.207 C 354.800 111.417,354.170 111.852,353.400 112.174 C 352.630 112.496,352.000 112.948,352.000 113.180 C 352.000 113.411,351.659 113.600,351.243 113.600 C 350.826 113.600,350.388 113.853,350.270 114.162 C 350.151 114.472,349.504 114.845,348.832 114.993 C 348.159 115.141,347.514 115.416,347.397 115.605 C 347.280 115.795,346.693 116.198,346.092 116.501 C 344.551 117.280,343.035 118.162,342.800 118.417 C 341.112 120.248,339.066 119.934,338.133 117.700 C 337.834 116.985,337.431 116.400,337.238 116.400 C 337.045 116.400,336.763 115.905,336.611 115.300 C 336.308 114.091,335.038 112.695,334.621 113.112 C 334.476 113.257,334.475 113.069,334.619 112.695 C 334.789 112.252,334.308 111.176,333.240 109.612 C 332.338 108.290,331.600 107.109,331.600 106.988 C 331.600 106.768,331.150 106.170,330.000 104.859 C 329.670 104.483,329.145 103.686,328.832 103.088 C 328.520 102.490,328.115 102.000,327.932 102.000 C 327.750 102.000,327.600 101.808,327.600 101.573 C 327.600 101.338,326.790 100.152,325.800 98.936 C 324.810 97.721,324.000 96.473,324.000 96.163 C 324.000 95.853,323.851 95.600,323.668 95.600 C 323.485 95.600,322.770 94.835,322.080 93.900 C 321.389 92.965,319.919 91.231,318.812 90.047 C 317.705 88.862,316.800 87.647,316.800 87.347 C 316.800 87.046,316.654 86.800,316.476 86.800 C 315.941 86.800,311.200 81.873,311.200 81.316 C 311.200 81.032,310.913 80.800,310.563 80.800 C 310.212 80.800,309.833 80.446,309.719 80.013 C 309.606 79.581,309.173 79.118,308.757 78.986 C 308.341 78.854,308.000 78.488,308.000 78.173 C 308.000 77.858,307.713 77.600,307.363 77.600 C 307.012 77.600,306.631 77.240,306.516 76.800 C 306.401 76.360,306.070 76.000,305.780 76.000 C 305.491 76.000,305.140 75.640,305.000 75.200 C 304.860 74.760,304.521 74.400,304.246 74.400 C 303.971 74.400,302.432 73.050,300.826 71.400 C 299.221 69.750,297.734 68.400,297.522 68.400 C 297.184 68.400,296.136 67.485,292.958 64.414 C 292.495 63.966,291.974 63.600,291.801 63.600 C 291.628 63.600,290.971 63.060,290.340 62.400 C 289.709 61.740,289.089 61.200,288.962 61.200 C 288.582 61.200,285.054 58.658,284.306 57.846 C 283.732 57.222,283.506 57.180,282.996 57.603 C 282.658 57.884,282.265 57.998,282.124 57.857 C 281.982 57.716,282.077 57.600,282.333 57.600 C 283.248 57.600,282.775 56.892,281.100 55.754 C 280.165 55.119,279.340 54.466,279.268 54.303 C 279.195 54.140,278.801 54.185,278.392 54.404 C 277.875 54.681,277.562 54.661,277.362 54.339 C 277.191 54.063,277.251 53.984,277.511 54.145 C 277.749 54.292,278.059 54.229,278.198 54.004 C 278.337 53.779,278.124 53.476,277.725 53.331 C 277.326 53.186,276.351 52.562,275.558 51.946 C 274.764 51.329,273.684 50.631,273.158 50.395 C 272.631 50.159,271.750 49.707,271.200 49.392 C 270.650 49.076,269.840 48.926,269.400 49.058 C 268.960 49.191,268.729 49.163,268.886 48.997 C 269.270 48.591,268.496 47.200,267.886 47.201 C 267.256 47.203,263.842 45.495,263.663 45.089 C 263.588 44.918,262.913 44.893,262.163 45.033 C 261.296 45.196,260.800 45.132,260.800 44.857 C 260.800 44.619,261.070 44.529,261.400 44.655 C 262.158 44.946,262.172 44.515,261.429 43.771 C 260.724 43.067,259.717 43.030,259.487 43.700 C 259.392 43.975,259.367 43.865,259.432 43.456 C 259.504 42.994,259.254 42.635,258.774 42.509 C 258.348 42.398,258.000 42.148,258.000 41.953 C 258.000 41.759,257.539 41.600,256.976 41.600 C 256.413 41.600,256.054 41.763,256.177 41.963 C 256.300 42.162,256.005 42.222,255.522 42.095 C 254.683 41.876,254.678 41.852,255.421 41.561 C 255.850 41.393,256.020 41.216,255.800 41.167 C 255.580 41.118,255.220 41.043,255.000 40.999 C 253.974 40.797,250.800 39.121,250.800 38.781 C 250.800 38.572,250.440 38.400,250.000 38.400 C 248.922 38.400,248.984 39.139,250.100 39.588 L 251.000 39.949 250.108 39.975 C 249.479 39.993,249.141 39.705,248.964 39.000 C 248.807 38.374,248.430 38.000,247.957 38.000 C 247.540 38.000,247.200 37.847,247.200 37.661 C 247.200 37.474,246.435 37.003,245.500 36.613 C 244.565 36.223,243.430 35.734,242.978 35.526 C 242.526 35.318,241.986 35.192,241.778 35.246 C 241.570 35.300,240.725 35.042,239.900 34.672 C 236.391 33.100,235.582 32.832,235.007 33.053 C 234.673 33.181,234.400 33.086,234.400 32.843 C 234.400 32.351,232.144 32.223,231.933 32.704 C 231.860 32.871,231.170 32.894,230.400 32.756 L 229.000 32.505 230.333 32.453 C 232.427 32.370,231.650 31.456,229.098 31.000 C 227.867 30.780,226.726 30.465,226.563 30.300 C 226.400 30.135,225.767 30.000,225.157 30.000 C 224.547 30.000,223.936 29.820,223.800 29.600 C 223.449 29.032,220.400 29.091,220.400 29.667 C 220.400 29.923,220.265 29.998,220.100 29.833 C 219.935 29.668,219.800 29.323,219.800 29.067 C 219.800 28.804,219.058 28.546,218.100 28.477 C 217.165 28.409,216.400 28.202,216.400 28.016 C 216.400 27.829,215.545 27.580,214.500 27.460 C 213.455 27.341,211.520 27.040,210.200 26.792 C 205.168 25.845,199.715 25.962,203.100 26.945 C 203.504 27.062,203.378 27.117,202.800 27.074 C 202.103 27.022,201.834 26.794,201.913 26.321 C 201.994 25.833,201.654 25.571,200.712 25.395 C 198.632 25.004,195.384 25.319,195.500 25.900 C 195.607 26.434,194.397 26.549,192.900 26.148 C 191.462 25.763,191.861 25.228,193.400 25.477 C 194.252 25.616,194.800 25.541,194.800 25.286 C 194.800 24.298,167.185 24.019,166.485 25.000 C 166.328 25.220,164.850 25.400,163.200 25.400 C 160.467 25.400,160.200 25.471,160.200 26.200 C 160.200 26.803,159.904 27.022,159.000 27.087 C 158.340 27.135,158.025 27.075,158.300 26.954 C 159.336 26.497,158.741 26.000,157.158 26.000 C 155.578 26.000,155.298 25.781,149.607 20.100 C 142.640 13.145,141.830 12.400,141.244 12.400 C 141.000 12.400,140.800 12.130,140.800 11.800 C 140.800 11.470,140.539 11.200,140.220 11.200 C 139.901 11.200,139.496 10.969,139.320 10.686 C 139.144 10.403,138.100 9.458,137.000 8.586 C 135.900 7.714,134.875 6.825,134.722 6.612 C 134.569 6.398,134.315 6.352,134.158 6.509 C 134.000 6.666,133.630 6.450,133.335 6.028 C 133.039 5.606,132.166 5.053,131.395 4.798 C 130.624 4.544,130.095 4.170,130.220 3.968 C 130.345 3.765,130.189 3.600,129.873 3.600 C 129.557 3.600,129.067 3.322,128.785 2.982 C 128.503 2.642,128.021 2.460,127.715 2.577 C 127.409 2.695,127.268 2.613,127.403 2.395 C 127.537 2.178,127.439 2.000,127.185 2.000 C 126.931 2.000,126.246 1.663,125.662 1.251 C 124.038 0.106,107.689 0.100,106.235 1.244 M97.476 16.700 C 97.375 17.085,97.293 16.770,97.293 16.000 C 97.293 15.230,97.375 14.915,97.476 15.300 C 97.576 15.685,97.576 16.315,97.476 16.700 M118.681 19.824 C 127.764 24.895,139.996 36.694,149.847 49.886 C 154.314 55.867,154.978 56.836,156.991 60.300 L 158.908 63.601 157.784 65.222 C 151.636 74.095,135.776 81.593,123.149 81.599 C 119.618 81.600,119.967 82.009,118.192 75.800 C 115.590 66.700,114.032 57.150,113.193 45.156 C 112.350 33.107,114.130 18.800,116.472 18.800 C 116.678 18.800,117.672 19.261,118.681 19.824 M95.600 26.000 C 95.321 26.674,95.007 27.140,94.902 27.036 C 94.798 26.931,94.952 26.305,95.244 25.644 C 95.938 24.077,96.262 24.401,95.600 26.000 M169.500 25.834 C 169.138 26.195,165.761 26.552,166.096 26.193 C 166.410 25.855,169.286 25.259,169.567 25.473 C 169.658 25.543,169.628 25.705,169.500 25.834 M65.600 31.800 C 65.166 32.322,65.425 32.400,67.600 32.400 C 69.775 32.400,70.034 32.322,69.600 31.800 C 69.319 31.462,68.447 31.200,67.600 31.200 C 66.753 31.200,65.881 31.462,65.600 31.800 M246.601 38.332 C 246.353 38.581,244.800 37.958,244.800 37.611 C 244.800 37.426,245.237 37.481,245.771 37.733 C 246.305 37.985,246.678 38.255,246.601 38.332 M198.234 45.386 C 200.892 45.702,204.222 46.158,205.634 46.400 C 207.045 46.641,209.280 47.004,210.600 47.207 C 245.335 52.536,283.082 75.911,308.126 107.600 C 311.256 111.561,316.919 119.698,318.564 122.600 C 318.938 123.260,320.292 125.599,321.572 127.798 C 322.852 129.997,323.829 131.977,323.743 132.198 C 323.656 132.419,317.424 136.283,309.893 140.784 C 302.362 145.285,289.450 153.007,281.200 157.945 C 272.950 162.883,265.660 167.228,265.000 167.601 C 264.340 167.975,262.540 169.054,261.000 170.000 C 259.460 170.946,257.660 172.029,257.000 172.407 C 256.340 172.785,253.211 174.648,250.047 176.547 C 246.883 178.446,244.198 180.000,244.079 180.000 C 243.960 180.000,243.537 180.295,243.139 180.655 C 242.464 181.266,242.194 181.213,239.108 179.860 C 208.895 166.614,179.174 196.876,191.827 228.000 C 199.293 246.363,221.236 255.244,238.742 246.987 C 242.429 245.248,241.485 245.051,247.900 248.892 C 250.925 250.703,253.760 252.386,254.200 252.632 C 254.640 252.878,260.040 256.100,266.200 259.792 C 272.360 263.483,277.940 266.815,278.600 267.196 C 280.976 268.567,283.899 270.321,285.435 271.298 C 286.296 271.845,291.500 274.951,297.000 278.200 C 302.500 281.449,308.080 284.782,309.400 285.606 C 310.720 286.430,314.455 288.685,317.700 290.616 C 324.755 294.816,324.506 293.895,320.482 300.891 C 300.257 336.047,260.886 367.076,225.200 375.983 C 224.430 376.175,222.090 376.776,220.000 377.318 C 196.475 383.423,167.478 383.661,144.000 377.941 C 138.175 376.522,126.918 372.993,122.883 371.321 C 120.955 370.522,120.944 369.997,122.770 365.699 C 125.398 359.512,125.140 359.844,127.615 359.494 C 143.167 357.298,151.390 354.976,162.400 349.672 C 185.453 338.565,204.256 318.099,214.591 292.865 C 217.282 286.296,216.784 286.387,213.430 293.077 C 197.815 324.220,169.917 344.747,137.400 349.018 C 103.386 353.485,71.740 342.188,53.748 319.154 C 37.580 298.457,26.918 275.139,21.031 247.600 C 20.423 244.754,20.080 242.651,19.172 236.200 C 17.273 222.713,17.280 203.960,19.189 190.500 C 19.415 188.905,19.775 186.343,19.988 184.806 C 20.617 180.282,22.972 170.115,24.854 163.800 C 35.299 128.751,56.328 98.316,85.000 76.751 C 90.490 72.621,93.796 70.339,96.446 68.848 L 98.692 67.585 99.122 69.292 C 99.358 70.232,99.935 72.710,100.403 74.800 C 101.506 79.724,102.524 83.180,104.468 88.600 C 107.907 98.185,109.278 98.974,122.400 98.932 C 144.747 98.860,164.952 87.811,175.011 70.159 C 178.261 64.456,177.678 61.616,170.949 50.387 C 169.437 47.864,168.200 45.620,168.200 45.400 C 168.200 44.340,189.360 44.331,198.234 45.386 M52.454 49.700 C 52.324 50.512,52.187 50.728,52.089 50.277 C 51.940 49.589,52.212 48.400,52.518 48.400 C 52.597 48.400,52.568 48.985,52.454 49.700 M75.300 56.227 C 79.565 59.427,79.572 59.191,75.102 62.506 C 70.598 65.847,70.639 65.878,70.461 58.980 C 70.291 52.426,70.260 52.444,75.300 56.227 M52.550 65.200 C 52.733 66.458,52.691 66.819,52.412 66.400 C 52.192 66.070,52.009 65.185,52.006 64.433 C 51.998 62.640,52.225 62.959,52.550 65.200 M334.138 155.233 C 335.384 158.752,336.573 162.298,336.781 163.115 C 336.988 163.932,337.768 166.940,338.513 169.800 C 340.865 178.830,341.807 183.788,343.034 193.600 C 343.913 200.620,344.261 220.691,343.617 227.149 C 342.745 235.900,341.393 245.318,340.424 249.400 C 340.215 250.280,339.658 252.620,339.186 254.600 C 336.826 264.506,332.193 278.000,331.153 278.000 C 330.699 278.000,321.518 272.632,309.400 265.281 C 306.320 263.412,303.260 261.576,302.600 261.199 C 300.529 260.017,290.438 254.009,284.600 250.482 C 281.520 248.621,278.460 246.789,277.800 246.412 C 277.140 246.034,272.280 243.133,267.000 239.964 C 261.720 236.794,256.905 233.954,256.300 233.651 C 254.920 232.960,254.927 232.673,256.402 229.522 C 261.150 219.376,261.099 206.886,256.270 197.086 C 254.643 193.785,254.392 194.156,260.800 190.389 C 263.550 188.773,272.010 183.734,279.600 179.193 C 298.768 167.725,312.380 159.601,313.800 158.782 C 315.971 157.530,323.380 153.107,324.400 152.453 C 327.811 150.268,331.054 148.523,331.433 148.668 C 331.675 148.761,332.892 151.715,334.138 155.233 M353.272 153.702 C 353.411 154.678,354.126 154.794,354.320 153.871 C 354.385 153.558,354.148 153.189,353.792 153.052 C 353.296 152.862,353.175 153.014,353.272 153.702 M93.700 158.660 C 92.538 158.913,92.565 159.405,93.822 160.899 C 105.133 174.342,96.213 203.505,83.630 194.222 C 81.502 192.652,81.456 192.863,81.758 202.760 C 82.688 233.243,89.077 255.509,99.760 265.503 C 112.842 277.741,123.218 263.173,123.194 232.600 C 123.159 187.994,110.039 155.102,93.700 158.660 M4.000 172.400 C 4.000 173.280,3.860 174.000,3.689 174.000 C 3.519 174.000,3.448 173.280,3.531 172.400 C 3.615 171.520,3.755 170.800,3.842 170.800 C 3.929 170.800,4.000 171.520,4.000 172.400 M360.172 180.900 C 360.543 182.692,360.655 186.357,360.331 186.158 C 360.149 186.045,360.000 184.894,360.000 183.600 C 360.000 182.306,359.820 181.136,359.600 181.000 C 359.086 180.682,359.081 180.000,359.592 180.000 C 359.808 180.000,360.069 180.405,360.172 180.900 M228.468 194.647 C 240.388 197.690,246.386 210.652,241.020 221.777 C 233.000 238.406,209.876 234.995,206.141 216.631 C 203.505 203.671,215.923 191.444,228.468 194.647 M361.593 234.814 C 360.906 236.096,360.763 235.565,361.313 233.780 C 361.690 232.557,361.828 232.399,361.925 233.079 C 361.994 233.563,361.844 234.343,361.593 234.814 M360.400 243.357 C 360.400 245.279,360.249 245.973,359.791 246.148 C 359.299 246.337,359.261 246.234,359.591 245.617 C 359.816 245.197,360.000 243.941,360.000 242.826 C 360.000 241.712,360.090 240.800,360.200 240.800 C 360.310 240.800,360.400 241.951,360.400 243.357 M2.667 253.067 C 2.240 253.493,2.359 254.800,2.824 254.800 C 3.057 254.800,3.158 254.944,3.050 255.119 C 2.942 255.295,3.018 255.700,3.220 256.019 C 3.474 256.420,3.590 256.011,3.594 254.700 C 3.600 252.931,3.311 252.423,2.667 253.067 M31.006 325.000 L 31.269 326.200 30.635 325.054 C 29.930 323.782,29.773 322.808,30.372 323.420 C 30.576 323.629,30.862 324.340,31.006 325.000 M32.719 334.854 C 32.593 335.655,32.537 335.598,32.352 334.487 C 32.221 333.693,32.279 333.319,32.501 333.541 C 32.703 333.743,32.801 334.333,32.719 334.854 M92.111 358.170 C 94.800 358.703,98.980 359.362,101.400 359.634 C 103.820 359.907,105.943 360.252,106.117 360.402 C 107.370 361.477,97.615 375.621,95.642 375.590 C 94.040 375.564,85.783 358.930,86.663 357.500 C 86.904 357.108,86.522 357.061,92.111 358.170 M258.000 383.492 C 257.670 383.617,257.268 383.918,257.106 384.160 C 256.925 384.431,256.810 384.332,256.806 383.900 C 256.802 383.430,257.095 383.210,257.700 383.232 C 258.301 383.253,258.401 383.339,258.000 383.492 " stroke="none" fill="#3d047c" fill-rule="evenodd"></path><path id="path2" d="M169.059 45.504 C 168.956 45.671,169.954 47.606,171.277 49.804 C 178.816 62.329,179.113 65.134,173.760 73.200 C 162.586 90.033,142.013 100.164,120.400 99.478 C 107.875 99.080,106.928 98.296,102.566 84.716 C 101.267 80.672,98.800 70.855,98.800 69.730 C 98.800 68.059,97.979 68.360,92.497 72.045 C 72.716 85.343,54.085 104.963,42.591 124.600 C 41.947 125.700,41.101 127.140,40.712 127.800 C 33.429 140.140,25.879 159.648,22.443 175.000 C 14.854 208.910,17.822 245.734,30.776 278.400 C 37.661 295.760,51.938 318.423,61.282 326.824 C 82.442 345.847,110.730 353.062,142.874 347.634 C 173.248 342.505,203.684 317.252,215.710 287.200 C 219.472 277.798,221.013 276.873,217.709 286.000 C 216.952 288.090,216.184 290.250,216.002 290.800 C 211.770 303.582,200.624 320.348,188.746 331.800 C 183.295 337.056,172.297 345.600,170.984 345.600 C 170.841 345.600,170.246 345.933,169.662 346.340 C 161.234 352.218,142.997 358.308,129.400 359.787 C 128.080 359.930,126.689 360.138,126.308 360.248 C 125.701 360.424,124.000 363.516,124.000 364.444 C 124.000 364.633,123.464 365.894,122.809 367.246 C 122.154 368.599,121.703 369.842,121.806 370.010 C 122.303 370.814,135.626 375.319,141.942 376.820 C 149.446 378.603,150.475 378.812,157.500 379.983 C 182.857 384.211,215.021 380.495,239.400 370.519 C 244.271 368.526,245.115 368.143,250.800 365.341 C 280.567 350.666,304.809 327.514,321.872 297.462 C 323.545 294.516,323.562 294.641,321.300 293.345 C 320.255 292.746,318.500 291.686,317.400 290.989 C 315.073 289.514,303.572 282.673,303.037 282.446 C 302.837 282.361,300.982 281.236,298.913 279.946 C 296.844 278.656,295.070 277.600,294.970 277.600 C 294.870 277.600,293.845 276.990,292.694 276.245 C 290.280 274.683,274.818 265.479,274.208 265.241 C 273.984 265.153,273.080 264.595,272.200 264.000 C 271.320 263.405,270.419 262.847,270.197 262.759 C 269.975 262.672,263.557 258.859,255.933 254.287 L 242.073 245.975 240.536 246.748 C 230.348 251.874,219.630 252.003,209.130 247.124 C 207.188 246.222,205.600 245.330,205.600 245.142 C 205.600 244.954,205.407 244.800,205.171 244.800 C 204.284 244.800,199.078 240.102,196.976 237.404 C 195.774 235.862,194.621 234.392,194.414 234.137 C 191.203 230.188,188.400 220.523,188.400 213.400 C 188.400 185.933,216.840 167.466,240.200 179.763 C 242.043 180.734,242.068 180.724,251.003 175.348 C 255.621 172.570,259.760 170.093,260.200 169.843 C 262.318 168.640,273.279 162.122,275.400 160.803 C 277.881 159.261,304.072 143.609,306.200 142.397 C 308.508 141.082,322.984 132.349,323.180 132.153 C 324.085 131.249,307.624 106.581,303.592 102.800 C 303.475 102.690,302.394 101.433,301.190 100.008 C 292.075 89.216,275.876 75.589,263.168 68.024 C 257.824 64.843,249.027 60.284,244.300 58.247 C 243.475 57.891,242.174 57.323,241.409 56.985 C 232.287 52.955,215.988 48.428,204.600 46.760 C 195.215 45.386,169.690 44.484,169.059 45.504 M127.741 122.080 C 136.936 125.950,145.078 138.272,152.006 158.800 C 152.860 161.330,153.826 164.390,154.152 165.600 C 154.479 166.810,155.138 169.240,155.617 171.000 C 157.950 179.569,160.988 195.617,161.978 204.600 C 162.197 206.580,162.556 209.730,162.776 211.600 C 167.528 251.920,161.769 289.420,149.028 301.136 C 138.711 310.622,107.260 304.859,89.238 290.179 C 68.940 273.646,57.291 252.227,53.140 223.800 C 52.430 218.944,52.426 201.376,53.133 196.600 C 55.119 183.174,59.213 170.189,64.077 161.882 C 64.695 160.828,65.200 159.877,65.200 159.771 C 65.200 159.664,66.390 157.737,67.845 155.488 C 79.244 137.869,95.525 126.071,114.000 122.040 C 120.653 120.589,124.224 120.599,127.741 122.080 M328.400 150.591 C 325.982 152.086,320.262 155.518,319.000 156.231 C 318.560 156.479,313.160 159.706,307.000 163.402 C 300.840 167.098,295.260 170.434,294.600 170.816 C 292.894 171.802,285.947 175.967,279.400 179.927 C 276.320 181.791,273.440 183.516,273.000 183.761 C 270.863 184.951,256.157 193.748,255.860 194.015 C 255.674 194.182,256.061 195.462,256.721 196.860 C 261.736 207.471,261.738 219.325,256.726 229.931 C 256.068 231.324,255.590 232.514,255.665 232.577 C 255.842 232.727,269.240 240.780,270.911 241.741 C 272.831 242.846,302.938 260.821,309.400 264.722 C 312.480 266.581,315.540 268.414,316.200 268.796 C 316.860 269.178,320.370 271.270,324.000 273.445 C 327.630 275.620,330.735 277.460,330.900 277.533 C 332.647 278.310,339.818 251.938,342.030 236.600 C 345.921 209.621,341.712 173.580,332.045 151.100 C 331.078 148.851,331.190 148.867,328.400 150.591 M218.628 195.659 C 205.977 199.934,202.274 217.299,211.987 226.800 C 220.100 234.737,231.783 233.604,239.200 224.162 C 249.746 210.736,234.896 190.160,218.628 195.659 " stroke="none" fill="#eb1b73" fill-rule="evenodd"></path><path id="path3" d="M130.400 28.525 C 130.400 28.594,130.985 29.179,131.700 29.825 L 133.000 31.000 131.825 29.700 C 130.730 28.488,130.400 28.216,130.400 28.525 M112.946 38.600 C 112.947 40.800,113.014 41.649,113.095 40.487 C 113.176 39.324,113.176 37.524,113.093 36.487 C 113.011 35.449,112.945 36.400,112.946 38.600 M171.400 44.743 C 167.541 45.053,167.566 44.742,170.949 50.387 C 177.678 61.616,178.261 64.456,175.011 70.159 C 164.952 87.811,144.747 98.860,122.400 98.932 C 109.278 98.974,107.907 98.185,104.468 88.600 C 102.524 83.180,101.506 79.724,100.403 74.800 C 99.935 72.710,99.358 70.232,99.122 69.292 L 98.692 67.585 96.446 68.848 C 95.211 69.543,93.030 70.928,91.600 71.927 C 61.287 93.091,40.220 120.506,27.612 155.200 C 25.903 159.902,23.115 169.547,23.305 170.100 C 23.399 170.375,23.778 169.520,24.146 168.200 C 28.150 153.865,34.570 138.207,40.712 127.800 C 41.101 127.140,41.947 125.700,42.591 124.600 C 54.085 104.963,72.716 85.343,92.497 72.045 C 97.979 68.360,98.800 68.059,98.800 69.730 C 98.800 70.855,101.267 80.672,102.566 84.716 C 106.928 98.296,107.875 99.080,120.400 99.478 C 142.013 100.164,162.586 90.033,173.760 73.200 C 179.113 65.134,178.816 62.329,171.277 49.804 C 169.954 47.606,168.956 45.671,169.059 45.504 C 169.690 44.484,195.215 45.386,204.600 46.760 C 215.988 48.428,232.287 52.955,241.409 56.985 C 242.174 57.323,243.475 57.891,244.300 58.247 C 249.027 60.284,257.824 64.843,263.168 68.024 C 275.876 75.589,292.075 89.216,301.190 100.008 C 302.394 101.433,303.475 102.690,303.592 102.800 C 307.624 106.581,324.085 131.249,323.180 132.153 C 322.984 132.349,308.508 141.082,306.200 142.397 C 304.072 143.609,277.881 159.261,275.400 160.803 C 273.279 162.122,262.318 168.640,260.200 169.843 C 259.760 170.093,255.621 172.570,251.003 175.348 C 242.068 180.724,242.043 180.734,240.200 179.763 C 216.840 167.466,188.400 185.933,188.400 213.400 C 188.400 220.523,191.203 230.188,194.414 234.137 C 194.621 234.392,195.774 235.862,196.976 237.404 C 199.078 240.102,204.284 244.800,205.171 244.800 C 205.407 244.800,205.600 244.954,205.600 245.142 C 205.600 247.065,217.683 250.523,224.400 250.523 C 231.108 250.523,234.706 249.682,240.536 246.748 L 242.073 245.975 255.933 254.287 C 263.557 258.859,269.975 262.672,270.197 262.759 C 270.419 262.847,271.320 263.405,272.200 264.000 C 273.080 264.595,273.984 265.153,274.208 265.241 C 274.818 265.479,290.280 274.683,292.694 276.245 C 293.845 276.990,294.870 277.600,294.970 277.600 C 295.070 277.600,296.844 278.656,298.913 279.946 C 300.982 281.236,302.837 282.361,303.037 282.446 C 303.572 282.673,315.073 289.514,317.400 290.989 C 318.500 291.686,320.255 292.746,321.300 293.345 C 323.562 294.641,323.545 294.516,321.872 297.462 C 304.809 327.514,280.567 350.666,250.800 365.341 C 245.115 368.143,244.271 368.526,239.400 370.519 C 224.240 376.722,207.562 380.299,187.800 381.584 L 182.200 381.949 189.400 381.793 C 199.187 381.582,209.566 380.046,220.600 377.177 C 222.360 376.719,224.430 376.184,225.200 375.989 C 261.197 366.848,300.242 336.075,320.482 300.891 C 324.506 293.895,324.755 294.816,317.700 290.616 C 314.455 288.685,310.720 286.430,309.400 285.606 C 308.080 284.782,302.500 281.449,297.000 278.200 C 291.500 274.951,286.296 271.845,285.435 271.298 C 283.899 270.321,280.976 268.567,278.600 267.196 C 277.940 266.815,272.360 263.483,266.200 259.792 C 260.040 256.100,254.640 252.878,254.200 252.632 C 253.760 252.386,250.925 250.703,247.900 248.892 C 241.485 245.051,242.429 245.248,238.742 246.987 C 215.646 257.881,189.063 239.919,189.031 213.400 C 189.000 186.453,214.773 169.191,239.108 179.860 C 242.194 181.213,242.464 181.266,243.139 180.655 C 243.537 180.295,243.960 180.000,244.079 180.000 C 244.198 180.000,246.883 178.446,250.047 176.547 C 253.211 174.648,256.340 172.785,257.000 172.407 C 257.660 172.029,259.460 170.946,261.000 170.000 C 262.540 169.054,264.340 167.975,265.000 167.601 C 265.660 167.228,272.950 162.883,281.200 157.945 C 289.450 153.007,302.362 145.285,309.893 140.784 C 317.424 136.283,323.656 132.419,323.743 132.198 C 323.829 131.977,322.852 129.997,321.572 127.798 C 320.292 125.599,318.938 123.260,318.564 122.600 C 316.919 119.698,311.256 111.561,308.126 107.600 C 283.082 75.911,245.335 52.536,210.600 47.207 C 209.280 47.004,207.045 46.641,205.634 46.400 C 197.095 44.940,179.522 44.090,171.400 44.743 M113.301 46.200 C 113.305 47.080,113.387 47.393,113.483 46.895 C 113.579 46.398,113.575 45.678,113.475 45.295 C 113.375 44.913,113.296 45.320,113.301 46.200 M70.493 62.000 C 70.493 62.770,70.575 63.085,70.676 62.700 C 70.776 62.315,70.776 61.685,70.676 61.300 C 70.575 60.915,70.493 61.230,70.493 62.000 M328.196 150.156 C 326.658 151.067,324.950 152.101,324.400 152.453 C 323.380 153.107,315.971 157.530,313.800 158.782 C 312.380 159.601,298.768 167.725,279.600 179.193 C 272.010 183.734,263.550 188.773,260.800 190.389 C 254.392 194.156,254.643 193.785,256.270 197.086 C 261.099 206.886,261.150 219.376,256.402 229.522 C 254.927 232.673,254.920 232.960,256.300 233.651 C 256.905 233.954,261.720 236.794,267.000 239.964 C 272.280 243.133,277.140 246.034,277.800 246.412 C 278.460 246.789,281.520 248.621,284.600 250.482 C 290.438 254.009,300.529 260.017,302.600 261.199 C 303.260 261.576,306.320 263.412,309.400 265.281 C 321.518 272.632,330.699 278.000,331.153 278.000 C 332.193 278.000,336.826 264.506,339.186 254.600 C 339.658 252.620,340.215 250.280,340.424 249.400 C 341.393 245.318,342.745 235.900,343.617 227.149 C 344.887 214.413,343.282 189.433,340.419 177.400 C 338.575 169.646,337.440 165.305,337.125 164.800 C 336.613 163.977,336.834 165.124,338.323 171.000 C 346.304 202.508,345.057 236.933,334.813 267.861 C 332.517 274.793,331.331 277.725,330.900 277.533 C 330.735 277.460,327.630 275.620,324.000 273.445 C 320.370 271.270,316.860 269.178,316.200 268.796 C 315.540 268.414,312.480 266.581,309.400 264.722 C 302.938 260.821,272.831 242.846,270.911 241.741 C 269.240 240.780,255.842 232.727,255.665 232.577 C 255.590 232.514,256.068 231.324,256.726 229.931 C 261.738 219.325,261.736 207.471,256.721 196.860 C 256.061 195.462,255.674 194.182,255.860 194.015 C 256.157 193.748,270.863 184.951,273.000 183.761 C 273.440 183.516,276.320 181.791,279.400 179.927 C 285.947 175.967,292.894 171.802,294.600 170.816 C 295.260 170.434,300.840 167.098,307.000 163.402 C 313.160 159.706,318.560 156.479,319.000 156.231 C 320.262 155.518,325.982 152.086,328.400 150.591 C 329.610 149.843,330.741 149.224,330.914 149.216 C 331.376 149.193,332.626 152.278,334.716 158.600 C 335.734 161.680,336.627 163.916,336.700 163.568 C 336.773 163.221,335.819 160.071,334.580 156.568 C 333.340 153.066,332.235 149.897,332.124 149.528 C 331.768 148.347,331.056 148.461,328.196 150.156 M22.232 173.470 C 21.845 175.047,21.600 176.666,21.686 177.069 C 21.772 177.471,22.162 176.400,22.551 174.689 C 22.941 172.978,23.186 171.359,23.097 171.091 C 23.008 170.823,22.618 171.893,22.232 173.470 M98.909 178.400 C 98.909 179.390,98.987 179.795,99.082 179.300 C 99.178 178.805,99.178 177.995,99.082 177.500 C 98.987 177.005,98.909 177.410,98.909 178.400 M20.840 180.000 C 20.576 181.210,20.188 183.415,19.980 184.900 C 19.771 186.385,19.415 188.905,19.189 190.500 C 17.281 203.952,17.272 222.574,19.167 236.200 C 20.441 245.360,21.499 250.635,21.574 248.200 C 21.588 247.760,21.249 245.510,20.822 243.200 C 17.627 225.921,17.640 201.542,20.853 183.274 C 21.684 178.552,21.675 176.182,20.840 180.000 M93.775 193.300 L 92.600 194.600 93.900 193.425 C 94.615 192.779,95.200 192.194,95.200 192.125 C 95.200 191.816,94.870 192.088,93.775 193.300 M219.668 194.795 C 218.276 195.185,216.926 195.732,216.668 196.011 C 216.298 196.412,216.367 196.456,217.000 196.221 C 228.165 192.080,238.861 197.407,241.855 208.600 C 243.152 213.447,241.913 220.707,239.200 224.162 C 231.783 233.604,220.100 234.737,211.987 226.800 C 203.703 218.697,205.104 203.469,214.678 197.552 C 215.428 197.088,215.951 196.618,215.840 196.507 C 214.905 195.572,209.328 201.519,207.652 205.237 C 199.760 222.747,218.855 239.732,234.705 229.301 C 252.066 217.875,239.581 189.224,219.668 194.795 M87.700 195.876 C 88.085 195.976,88.715 195.976,89.100 195.876 C 89.485 195.775,89.170 195.693,88.400 195.693 C 87.630 195.693,87.315 195.775,87.700 195.876 M81.731 207.000 C 81.733 208.540,81.805 209.121,81.892 208.291 C 81.979 207.461,81.977 206.201,81.889 205.491 C 81.800 204.781,81.729 205.460,81.731 207.000 M122.893 222.000 C 122.893 222.770,122.975 223.085,123.076 222.700 C 123.176 222.315,123.176 221.685,123.076 221.300 C 122.975 220.915,122.893 221.230,122.893 222.000 M123.359 232.800 C 123.359 235.990,123.421 237.295,123.497 235.700 C 123.573 234.105,123.573 231.495,123.497 229.900 C 123.421 228.305,123.359 229.610,123.359 232.800 M21.600 249.979 C 21.600 255.203,29.443 277.634,35.804 290.600 C 54.268 328.240,76.944 345.656,112.400 349.430 C 154.948 353.958,193.759 332.310,213.430 293.077 C 216.784 286.387,217.282 286.296,214.591 292.865 C 204.256 318.099,185.453 338.565,162.400 349.672 C 151.390 354.976,143.167 357.298,127.615 359.494 C 125.140 359.844,125.398 359.512,122.770 365.699 C 120.944 369.997,120.955 370.522,122.883 371.321 C 136.745 377.064,157.162 381.411,172.000 381.778 C 178.943 381.949,178.958 381.948,173.800 381.602 C 160.555 380.713,154.505 379.805,141.942 376.820 C 135.626 375.319,122.303 370.814,121.806 370.010 C 121.703 369.842,122.154 368.599,122.809 367.246 C 123.464 365.894,124.000 364.633,124.000 364.444 C 124.000 363.516,125.701 360.424,126.308 360.248 C 126.689 360.138,128.080 359.930,129.400 359.787 C 142.997 358.308,161.234 352.218,169.662 346.340 C 170.246 345.933,170.841 345.600,170.984 345.600 C 172.297 345.600,183.295 337.056,188.746 331.800 C 200.624 320.348,211.770 303.582,216.002 290.800 C 216.184 290.250,216.952 288.090,217.709 286.000 C 221.013 276.873,219.472 277.798,215.710 287.200 C 203.684 317.252,173.248 342.505,142.874 347.634 C 102.482 354.455,69.640 341.904,48.798 311.682 C 36.522 293.881,26.897 272.068,22.594 252.300 C 21.927 249.233,21.600 248.470,21.600 249.979 M98.783 264.900 C 99.764 265.945,100.619 266.800,100.683 266.800 C 100.984 266.800,100.666 266.441,98.900 264.783 L 97.000 263.000 98.783 264.900 " stroke="none" fill="#a01175" fill-rule="evenodd"></path><path id="path4" d="M115.847 19.548 C 115.491 19.941,115.212 20.519,115.227 20.831 C 115.242 21.146,115.448 20.998,115.688 20.500 C 116.250 19.336,116.929 19.365,119.118 20.648 C 120.102 21.225,120.780 21.491,120.625 21.241 C 119.849 19.984,116.519 18.805,115.847 19.548 M114.800 21.698 C 114.800 21.825,114.530 23.340,114.200 25.065 C 113.870 26.789,113.615 28.740,113.632 29.400 C 113.650 30.060,114.010 28.635,114.433 26.234 C 114.856 23.833,115.111 21.778,115.001 21.667 C 114.890 21.557,114.800 21.571,114.800 21.698 M121.200 21.754 C 121.200 21.839,121.695 22.227,122.300 22.616 L 123.400 23.324 122.638 22.462 C 121.964 21.699,121.200 21.323,121.200 21.754 M123.600 23.324 C 123.600 23.422,125.265 24.859,127.300 26.519 C 130.715 29.303,139.314 37.774,142.304 41.300 C 143.003 42.125,143.689 42.800,143.827 42.800 C 144.198 42.800,140.575 38.721,136.533 34.587 C 131.586 29.528,123.600 22.573,123.600 23.324 M113.362 38.600 C 113.362 42.120,113.424 43.506,113.498 41.681 C 113.572 39.856,113.572 36.976,113.497 35.281 C 113.422 33.586,113.361 35.080,113.362 38.600 M147.796 48.100 C 149.876 50.795,151.919 53.451,152.337 54.002 C 154.141 56.378,158.000 63.030,158.000 63.764 C 158.000 64.253,156.404 66.124,153.900 68.570 C 151.645 70.772,150.347 72.190,151.015 71.720 C 153.039 70.298,158.017 65.061,158.260 64.098 C 158.541 62.985,156.353 59.059,152.282 53.375 C 148.589 48.216,144.683 43.242,144.307 43.218 C 144.147 43.208,145.716 45.405,147.796 48.100 M113.648 48.532 C 113.597 50.157,114.751 59.684,115.033 59.967 C 115.280 60.214,115.224 59.569,114.426 53.000 C 114.025 49.700,113.675 47.689,113.648 48.532 M70.569 54.135 C 70.456 54.430,70.426 56.095,70.502 57.835 L 70.639 61.000 70.720 57.457 C 70.788 54.439,70.892 53.950,71.421 54.153 C 71.777 54.289,71.937 54.222,71.797 53.995 C 71.450 53.433,70.811 53.506,70.569 54.135 M74.451 56.064 C 75.029 56.579,76.167 57.513,76.980 58.140 L 78.458 59.280 75.234 61.647 C 71.413 64.452,71.466 64.440,71.157 62.513 L 70.914 61.000 70.857 62.676 C 70.773 65.152,71.218 65.095,75.176 62.130 L 78.780 59.431 77.972 58.570 C 77.527 58.096,76.316 57.129,75.281 56.419 C 74.243 55.707,73.871 55.548,74.451 56.064 M115.280 62.000 C 115.280 62.550,115.424 63.450,115.600 64.000 L 115.920 65.000 115.920 64.000 C 115.920 63.450,115.776 62.550,115.600 62.000 L 115.280 61.000 115.280 62.000 M116.068 66.000 C 116.062 66.550,116.211 67.360,116.400 67.800 L 116.744 68.600 116.732 67.800 C 116.726 67.360,116.576 66.550,116.400 66.000 L 116.080 65.000 116.068 66.000 M116.856 69.800 C 116.856 70.240,117.011 70.960,117.200 71.400 L 117.544 72.200 117.544 71.400 C 117.544 70.960,117.389 70.240,117.200 69.800 L 116.856 69.000 116.856 69.800 M117.656 73.000 C 117.656 73.440,117.811 74.160,118.000 74.600 L 118.344 75.400 118.344 74.600 C 118.344 74.160,118.189 73.440,118.000 73.000 L 117.656 72.200 117.656 73.000 M148.344 73.223 C 147.450 74.002,147.446 74.023,148.278 73.620 C 148.760 73.387,149.266 73.017,149.401 72.798 C 149.795 72.162,149.363 72.335,148.344 73.223 M144.039 75.623 C 140.618 77.431,139.910 77.970,142.200 77.021 C 144.010 76.271,147.200 74.460,147.200 74.183 C 147.200 73.938,147.383 73.855,144.039 75.623 M118.431 76.100 C 118.472 76.758,119.929 80.700,119.969 80.262 C 120.015 79.755,118.770 75.600,118.572 75.600 C 118.477 75.600,118.414 75.825,118.431 76.100 M137.800 78.429 C 136.920 78.852,136.650 79.086,137.200 78.950 C 138.705 78.575,140.684 77.666,140.000 77.662 C 139.670 77.661,138.680 78.006,137.800 78.429 M133.400 79.623 C 132.740 79.811,131.480 80.148,130.600 80.371 L 129.000 80.778 130.894 80.565 C 132.982 80.331,136.674 79.278,135.400 79.280 C 134.960 79.281,134.060 79.435,133.400 79.623 M120.263 81.300 C 120.497 81.681,123.992 81.629,126.600 81.205 C 128.201 80.945,127.750 80.892,124.340 80.940 C 121.997 80.973,120.162 81.135,120.263 81.300 M119.000 121.042 C 98.759 123.902,80.191 136.405,67.845 155.488 C 66.390 157.737,65.200 159.664,65.200 159.771 C 65.200 159.877,64.695 160.828,64.077 161.882 C 60.412 168.141,54.301 185.536,54.429 189.344 C 54.445 189.815,55.060 187.860,55.795 185.000 C 64.119 152.644,85.563 129.106,112.400 122.868 C 113.390 122.638,115.074 122.251,116.142 122.008 C 129.307 119.019,139.786 128.293,148.648 150.777 C 149.033 151.755,149.412 152.364,149.490 152.130 C 149.568 151.897,148.919 150.087,148.048 148.108 C 139.259 128.136,129.980 119.490,119.000 121.042 M149.853 153.600 C 150.232 155.139,151.132 157.073,151.157 156.400 C 151.169 156.070,150.825 155.080,150.393 154.200 C 149.954 153.306,149.716 153.041,149.853 153.600 M151.209 157.500 C 151.228 158.186,154.338 167.350,154.368 166.809 C 154.406 166.103,151.638 157.200,151.380 157.200 C 151.281 157.200,151.204 157.335,151.209 157.500 M93.100 158.432 C 92.715 158.656,92.400 159.043,92.400 159.291 C 92.400 159.733,95.191 164.000,95.481 164.000 C 95.724 164.000,94.740 162.286,93.738 160.962 C 92.098 158.798,93.369 158.028,97.737 158.538 C 99.122 158.700,99.603 158.653,99.200 158.396 C 98.406 157.888,93.989 157.914,93.100 158.432 M100.033 158.949 C 100.125 159.031,100.830 159.402,101.600 159.773 L 103.000 160.448 102.000 159.633 C 101.214 158.992,99.362 158.348,100.033 158.949 M105.555 162.622 C 107.949 164.839,110.876 168.773,112.595 172.084 C 113.018 172.901,113.439 173.495,113.528 173.405 C 114.451 172.483,106.639 162.282,103.810 160.713 C 103.375 160.473,104.161 161.332,105.555 162.622 M95.646 164.600 C 95.653 164.820,96.006 165.720,96.429 166.600 C 96.852 167.480,97.086 167.750,96.949 167.200 C 96.667 166.067,95.625 163.988,95.646 164.600 M154.400 167.757 C 154.400 167.916,154.953 170.239,155.630 172.917 C 156.306 175.596,157.005 178.511,157.182 179.394 C 157.360 180.277,157.781 182.350,158.119 184.000 C 158.456 185.650,158.952 188.260,159.220 189.800 C 159.942 193.938,160.445 195.515,160.176 192.800 C 159.980 190.817,158.602 183.732,157.065 176.800 C 155.856 171.350,154.400 166.409,154.400 167.757 M97.240 168.840 C 97.218 169.192,97.385 170.013,97.612 170.663 C 97.839 171.313,98.190 173.275,98.392 175.022 L 98.760 178.200 98.592 175.000 C 98.444 172.180,97.343 167.165,97.240 168.840 M113.600 174.071 C 113.600 174.479,114.804 177.200,114.985 177.200 C 115.236 177.200,114.354 174.670,113.945 174.220 C 113.755 174.011,113.600 173.944,113.600 174.071 M115.385 178.600 C 115.551 179.040,115.860 180.002,116.073 180.738 C 116.285 181.473,116.553 181.980,116.669 181.864 C 116.945 181.589,116.023 178.716,115.493 178.200 C 115.214 177.928,115.179 178.056,115.385 178.600 M98.447 180.000 C 98.370 181.690,98.091 183.375,97.420 186.200 C 97.212 187.078,97.246 187.241,97.548 186.809 C 98.151 185.944,98.907 181.226,98.703 179.600 C 98.541 178.304,98.522 178.334,98.447 180.000 M116.805 182.700 C 116.817 183.342,118.329 187.769,118.364 187.262 C 118.409 186.595,117.208 182.400,116.972 182.400 C 116.877 182.400,116.802 182.535,116.805 182.700 M95.841 189.823 C 95.203 191.042,93.956 192.660,93.069 193.420 C 92.182 194.179,91.644 194.800,91.873 194.800 C 92.974 194.800,97.459 188.972,97.124 187.977 C 97.056 187.773,96.478 188.604,95.841 189.823 M118.456 188.600 C 118.456 189.040,118.611 189.760,118.800 190.200 L 119.144 191.000 119.144 190.200 C 119.144 189.760,118.989 189.040,118.800 188.600 L 118.456 187.800 118.456 188.600 M53.811 192.075 C 53.649 193.106,53.602 194.186,53.706 194.475 C 53.810 194.764,54.027 194.156,54.189 193.125 C 54.351 192.094,54.398 191.014,54.294 190.725 C 54.190 190.436,53.973 191.044,53.811 192.075 M119.250 191.800 C 119.231 192.920,120.709 199.581,120.759 198.600 C 120.797 197.851,119.759 192.281,119.418 191.400 C 119.333 191.180,119.257 191.360,119.250 191.800 M81.391 192.880 C 81.276 193.180,81.235 196.750,81.300 200.813 L 81.419 208.200 81.510 200.500 C 81.559 196.265,81.702 192.800,81.827 192.800 C 81.951 192.800,82.676 193.275,83.438 193.856 C 84.199 194.436,84.915 194.819,85.028 194.705 C 85.141 194.592,84.551 194.075,83.717 193.556 C 81.643 192.266,81.628 192.262,81.391 192.880 M86.138 195.294 C 86.746 195.681,90.700 195.686,90.938 195.300 C 91.040 195.135,89.898 195.000,88.400 195.000 C 86.902 195.000,85.884 195.132,86.138 195.294 M52.937 198.270 C 52.477 202.543,52.633 220.930,53.150 223.400 C 53.564 225.378,53.567 225.370,53.383 222.600 C 52.779 213.518,52.718 206.660,53.192 201.342 C 53.729 195.315,53.523 192.830,52.937 198.270 M160.448 196.030 C 160.401 197.036,161.445 204.810,161.786 206.000 C 161.881 206.330,161.862 205.160,161.744 203.400 C 161.512 199.948,160.526 194.338,160.448 196.030 M120.830 200.633 C 120.892 202.239,122.309 210.550,122.353 209.570 C 122.407 208.376,121.243 200.309,120.978 200.045 C 120.880 199.947,120.813 200.212,120.830 200.633 M162.191 210.200 C 162.355 211.960,162.715 216.010,162.991 219.200 C 163.318 222.978,163.511 224.151,163.546 222.564 C 163.610 219.690,162.496 207.553,162.139 207.226 C 162.003 207.102,162.027 208.440,162.191 210.200 M81.640 212.233 C 81.661 213.755,81.824 215.990,82.001 217.200 C 82.214 218.656,82.250 217.777,82.110 214.600 C 81.877 209.343,81.577 207.832,81.640 212.233 M122.592 214.200 C 123.761 231.432,123.740 241.741,122.522 248.152 C 122.392 248.839,122.407 249.289,122.556 249.153 C 124.185 247.670,124.334 223.893,122.776 214.000 L 122.429 211.800 122.592 214.200 M82.486 221.200 C 82.483 222.190,82.624 223.450,82.800 224.000 C 83.265 225.451,83.282 223.218,82.823 221.000 L 82.492 219.400 82.486 221.200 M362.667 220.667 C 362.220 221.113,362.367 221.467,363.000 221.467 C 363.330 221.467,363.600 221.227,363.600 220.933 C 363.600 220.366,363.108 220.225,362.667 220.667 M163.728 239.400 C 163.725 248.474,163.834 252.542,164.022 250.400 C 164.398 246.116,164.396 234.259,164.019 229.000 C 163.833 226.415,163.730 230.093,163.728 239.400 M53.680 226.800 C 53.680 227.570,53.824 228.650,54.000 229.200 C 54.290 230.105,54.320 230.067,54.320 228.800 C 54.320 228.030,54.176 226.950,54.000 226.400 C 53.710 225.495,53.680 225.533,53.680 226.800 M83.295 226.800 C 83.295 227.350,83.432 228.340,83.600 229.000 C 83.872 230.070,83.905 230.092,83.905 229.200 C 83.905 228.650,83.768 227.660,83.600 227.000 C 83.328 225.930,83.295 225.908,83.295 226.800 M54.432 230.921 C 54.383 232.033,55.648 237.286,55.903 237.030 C 56.124 236.810,55.431 233.193,54.787 231.200 C 54.562 230.505,54.454 230.420,54.432 230.921 M84.068 231.200 C 84.062 231.750,84.211 232.560,84.400 233.000 L 84.744 233.800 84.732 233.000 C 84.726 232.560,84.576 231.750,84.400 231.200 L 84.080 230.200 84.068 231.200 M84.828 234.718 C 84.781 235.580,86.131 240.608,86.285 240.145 C 86.364 239.908,86.075 238.474,85.643 236.957 C 85.210 235.441,84.844 234.433,84.828 234.718 M56.240 238.800 C 57.675 247.576,65.717 264.062,73.606 274.400 C 77.908 280.038,88.464 290.470,89.161 289.773 C 89.289 289.645,89.090 289.371,88.720 289.163 C 87.169 288.295,81.322 282.742,77.779 278.772 C 71.252 271.459,63.741 259.271,60.663 251.000 C 59.783 248.634,57.822 242.967,56.857 240.000 C 56.392 238.570,56.114 238.030,56.240 238.800 M86.432 241.143 C 86.388 241.888,89.176 250.108,89.632 250.580 C 89.834 250.788,89.301 248.898,88.447 246.380 C 86.357 240.210,86.469 240.502,86.432 241.143 M121.682 252.400 C 121.407 253.610,121.070 255.050,120.932 255.600 C 120.795 256.150,120.801 256.492,120.947 256.361 C 121.352 255.995,122.446 251.532,122.305 250.824 C 122.237 250.481,121.956 251.190,121.682 252.400 M90.011 251.445 C 89.988 252.383,94.885 261.200,95.429 261.200 C 95.676 261.200,95.397 260.675,94.336 259.141 C 93.933 258.558,92.798 256.488,91.812 254.541 C 90.827 252.593,90.017 251.200,90.011 251.445 M162.862 259.800 C 161.976 269.021,161.962 269.262,162.395 267.600 C 162.886 265.718,163.712 256.902,163.539 255.400 C 163.462 254.740,163.158 256.720,162.862 259.800 M119.877 258.677 C 119.500 259.693,119.258 260.591,119.338 260.672 C 119.419 260.752,119.800 259.993,120.185 258.985 C 120.570 257.976,120.812 257.079,120.723 256.990 C 120.635 256.901,120.254 257.660,119.877 258.677 M96.727 263.085 C 101.591 269.310,107.724 271.572,112.785 269.008 C 114.694 268.040,115.653 267.200,114.847 267.200 C 114.627 267.200,114.334 267.383,114.196 267.606 C 111.783 271.510,103.799 269.908,98.405 264.438 C 96.722 262.731,95.987 262.138,96.727 263.085 M116.715 264.800 C 115.208 266.829,115.032 267.546,116.444 265.900 C 117.192 265.028,118.534 262.800,118.310 262.800 C 118.250 262.801,117.532 263.701,116.715 264.800 M161.015 273.300 C 160.628 275.335,160.046 277.990,159.721 279.200 C 159.397 280.410,158.988 281.940,158.813 282.600 C 156.763 290.339,152.236 298.210,147.972 301.450 C 143.821 304.603,142.251 304.954,132.200 304.978 C 127.360 304.990,124.300 305.119,125.400 305.265 C 132.016 306.141,141.498 305.442,145.070 303.815 C 152.637 300.367,159.817 286.582,161.796 271.700 C 162.245 268.325,161.778 269.281,161.015 273.300 M89.602 290.322 C 89.607 290.836,98.166 296.279,102.000 298.205 C 108.475 301.458,119.991 305.100,122.576 304.712 C 123.029 304.644,121.710 304.254,119.645 303.847 C 110.517 302.043,102.366 298.567,93.700 292.782 C 91.445 291.276,89.601 290.170,89.602 290.322 M86.946 357.797 C 86.841 358.071,87.037 358.903,87.382 359.647 C 87.975 360.929,88.003 360.155,87.414 358.730 C 87.199 358.209,87.389 358.029,88.269 357.923 L 89.400 357.787 88.268 357.543 C 87.540 357.386,87.069 357.476,86.946 357.797 M90.200 358.400 C 90.640 358.589,91.450 358.738,92.000 358.732 L 93.000 358.720 92.000 358.400 C 91.450 358.224,90.640 358.074,90.200 358.068 L 89.400 358.056 90.200 358.400 M94.200 359.186 C 94.957 359.525,98.321 359.764,97.967 359.454 C 97.875 359.374,96.810 359.200,95.600 359.068 C 94.163 358.912,93.678 358.952,94.200 359.186 M99.400 359.982 C 100.598 360.305,105.482 360.533,105.167 360.251 C 105.075 360.170,103.470 360.003,101.600 359.881 C 99.571 359.748,98.684 359.789,99.400 359.982 M104.524 363.190 C 102.254 367.830,98.742 372.757,96.292 374.738 C 95.716 375.204,95.485 375.123,94.566 374.138 C 93.633 373.137,93.575 373.118,94.087 373.978 C 95.291 376.003,95.902 375.974,97.885 373.801 C 100.936 370.458,106.329 361.832,105.942 360.916 C 105.864 360.732,105.226 361.755,104.524 363.190 M88.251 362.000 C 88.598 363.361,90.880 368.454,91.061 368.272 C 91.190 368.144,89.844 364.886,88.472 362.000 L 87.996 361.000 88.251 362.000 M92.586 371.500 C 92.935 372.215,93.306 372.800,93.410 372.800 C 93.808 372.800,93.552 372.163,92.767 371.200 L 91.952 370.200 92.586 371.500 " stroke="none" fill="#d473ad" fill-rule="evenodd"></path></g></svg>